# xmcd
# 
# Track frame offsets:
#     150
#     9840
#     18857
#     28285
#     38937
#     56782
#     70600
#     80385
#     91275
#     99730
#     115705
#     127167
#     144720
#     169742
#     180677
#     198265
# 
# Disc length: 2808
# 
# Revision: 13
# Processed by: cddbd v1.5.2PL0 Copyright (c) Steve Scherf et al.
# Submitted via: fre:ac v1.0.31
# 
DISCID=d40af610
DTITLE=Johnny Cash - God
DYEAR=2000
DGENRE=Country
TTITLE0=What On Earth Will You Do (For Heaven's Sake)
TTITLE1=My God Is Real
TTITLE2=It Was Jesus
TTITLE3=Why Me Lord [mono]
TTITLE4=The Greatest Cowboy Of Them All
TTITLE5=Redemption [mono]
TTITLE6=The Great Speckled Bird
TTITLE7=The Old Account
TTITLE8=Swing Low, Sweet Chariot
TTITLE9=When He Comes
TTITLE10=The Kneeling Drunkard's Plea
TTITLE11=Were You There (When They Crucified My Lord)
TTITLE12=Man In White
TTITLE13=Belshazzar [mono]
TTITLE14=Oh, Bury Me Not (Introduction: A Cowboy's Prayer) [mono]
TTITLE15=Oh Come, Angel Band
EXTD=YEAR: 2000
EXTT0=
EXTT1=
EXTT2=
EXTT3=
EXTT4=
EXTT5=
EXTT6=
EXTT7=
EXTT8=
EXTT9=
EXTT10=
EXTT11=
EXTT12=
EXTT13=
EXTT14=
EXTT15=
PLAYORDER=
